<svg height="32" fill="#4480eb" width="32" xmlns="http://www.w3.org/2000/svg">
    <path d="M30.398 19.113v10.646h-6.172v-9.935c0-2.496-.893-4.199-3.127-4.199-1.707 0-2.721 1.148-3.168 2.259-.162.397-.205.948-.205 1.505v10.37h-6.174s.082-16.826 0-18.568h6.174v2.633c-.012.02-.028.041-.041.06h.041v-.06c.82-1.265 2.285-3.068 5.564-3.068 4.064-.001 7.108 2.654 7.108 8.357zM5.096 2.24c-2.113 0-3.494 1.387-3.494 3.209 0 1.78 1.342 3.209 3.412 3.209h.041c2.151 0 3.491-1.428 3.491-3.209-.041-1.822-1.34-3.209-3.452-3.209h.002zM1.969 29.76h6.172V11.192H1.969V29.76z"/>
</svg>
