<svg xmlns="http://www.w3.org/2000/svg" width="13" height="32">
    <path fill="#d84b64"
          d="M10.856 27.418l-.295-.28a.506.506 0 00-.348-.135.506.506 0 00-.348.135l-3.363 3.164-3.367-3.167A.505.505 0 002.787 27a.506.506 0 00-.348.135l-.295.278a.444.444 0 000 .654l4.008 3.784a.518.518 0 00.35.149.517.517 0 00.349-.149l4.005-3.773a.449.449 0 000-.66zm2-20.99v8.997a6.435 6.435 0 01-6.428 6.429A6.435 6.435 0 010 15.425V6.428A6.436 6.436 0 016.428 0a6.435 6.435 0 016.428 6.428zm-1.311 0a5.123 5.123 0 00-5.117-5.117A5.123 5.123 0 001.31 6.428v8.997a5.123 5.123 0 005.117 5.117 5.123 5.123 0 005.117-5.117z"/>
    <path fill="#d84b64"
          d="M6.428 4.347a.655.655 0 00-.655.656V8.02a.655.655 0 101.31 0V5.003a.656.656 0 00-.655-.656z"/>
</svg>
