<svg xmlns="http://www.w3.org/2000/svg" width="13" height="32" viewBox="0 0 13 32">
    <g>
        <g>
            <path fill="#d84b64"
                  d="M10.856 27.418l-.295-.28a.506.506 0 0 0-.348-.135.506.506 0 0 0-.348.135l-3.363 3.164-3.367-3.167A.505.505 0 0 0 2.787 27a.506.506 0 0 0-.348.135l-.295.278a.444.444 0 0 0 0 .654l4.008 3.784a.518.518 0 0 0 .35.149.517.517 0 0 0 .349-.149l4.005-3.773a.449.449 0 0 0 0-.66z"/>
        </g>
        <g>
            <path fill="#d84b64"
                  d="M12.856 6.428v8.997a6.435 6.435 0 0 1-6.428 6.429A6.435 6.435 0 0 1 0 15.425V6.428A6.436 6.436 0 0 1 6.428 0a6.435 6.435 0 0 1 6.428 6.428zm-1.311 0a5.123 5.123 0 0 0-5.117-5.117A5.123 5.123 0 0 0 1.31 6.428v8.997a5.123 5.123 0 0 0 5.117 5.117 5.123 5.123 0 0 0 5.117-5.117z"/>
        </g>
        <g>
            <path fill="#d84b64"
                  d="M6.428 4.347a.655.655 0 0 0-.655.656V8.02a.655.655 0 1 0 1.31 0V5.003a.656.656 0 0 0-.655-.656z"/>
        </g>
    </g>
</svg>